<?xml version="1.0" encoding="UTF-8" standalone="no"?><svg xmlns="http://www.w3.org/2000/svg" xmlns:xlink="http://www.w3.org/1999/xlink" contentScriptType="application/ecmascript" contentStyleType="text/css" height="348px" preserveAspectRatio="none" style="width:1219px;height:348px;" version="1.1" viewBox="0 0 1219 348" width="1219px" zoomAndPan="magnify"><defs><filter height="300%" id="f1w6ajy2jaw2f4" width="300%" x="-1" y="-1"><feGaussianBlur result="blurOut" stdDeviation="2.0"/><feColorMatrix in="blurOut" result="blurOut2" type="matrix" values="0 0 0 0 0 0 0 0 0 0 0 0 0 0 0 0 0 0 .4 0"/><feOffset dx="4.0" dy="4.0" in="blurOut2" result="blurOut3"/><feBlend in="SourceGraphic" in2="blurOut3" mode="normal"/></filter></defs><g><!--class Planet--><rect fill="#FEFECE" filter="url(#f1w6ajy2jaw2f4)" height="91.2188" id="Planet" style="stroke: #A80036; stroke-width: 1.5;" width="151" x="309" y="121"/><ellipse cx="360.25" cy="137" fill="#ADD1B2" rx="11" ry="11" style="stroke: #A80036; stroke-width: 1.0;"/><path d="M363.25,142 Q362.6406,142.5 361.9844,142.75 Q361.3281,143 360.5938,143 Q357.9844,143 356.6172,141.4609 Q355.25,139.9219 355.25,137 Q355.25,134.0781 356.6172,132.5391 Q357.9844,131 360.5938,131 Q361.3281,131 362,131.25 Q362.6719,131.5 363.25,132 L363.25,135 Q362.6406,133.9688 362.0625,133.4844 Q361.4844,133 360.875,133 Q359.5781,133 358.9141,134.0078 Q358.25,135.0156 358.25,137 Q358.25,138.9844 358.9141,139.9922 Q359.5781,141 360.875,141 Q361.4844,141 362.0625,140.5156 Q362.6406,140.0313 363.25,139 L363.25,142 Z "/><text fill="#000000" font-family="sans-serif" font-size="12" lengthAdjust="spacingAndGlyphs" textLength="40" x="380.75" y="141.1543">Planet</text><line style="stroke: #A80036; stroke-width: 1.5;" x1="310" x2="459" y1="153" y2="153"/><ellipse cx="320" cy="164.9023" fill="none" rx="3" ry="3" style="stroke: #038048; stroke-width: 1.0;"/><text fill="#000000" font-family="sans-serif" font-size="11" lengthAdjust="spacingAndGlyphs" textLength="32" x="329" y="167.2104">name</text><ellipse cx="320" cy="177.707" fill="none" rx="3" ry="3" style="stroke: #038048; stroke-width: 1.0;"/><text fill="#000000" font-family="sans-serif" font-size="11" lengthAdjust="spacingAndGlyphs" textLength="86" x="329" y="180.0151">angularVelocity</text><ellipse cx="320" cy="190.5117" fill="none" rx="3" ry="3" style="stroke: #038048; stroke-width: 1.0;"/><text fill="#000000" font-family="sans-serif" font-size="11" lengthAdjust="spacingAndGlyphs" textLength="86" x="329" y="192.8198">distanceToStar</text><ellipse cx="320" cy="203.3164" fill="none" rx="3" ry="3" style="stroke: #038048; stroke-width: 1.0;"/><text fill="#000000" font-family="sans-serif" font-size="11" lengthAdjust="spacingAndGlyphs" textLength="125" x="329" y="205.6245">degreesAtInstantZero</text><path d="M17.5,154 L17.5,179.1328 A0,0 0 0 0 17.5,179.1328 L273.5,179.1328 A0,0 0 0 0 273.5,179.1328 L273.5,172 L308.8734,166.5 L273.5,164 L273.5,164 L263.5,154 L17.5,154 A0,0 0 0 0 17.5,154 " fill="#FBFB77" filter="url(#f1w6ajy2jaw2f4)" style="stroke: #A80036; stroke-width: 1.0;"/><path d="M263.5,154 L263.5,164 L273.5,164 L263.5,154 " fill="#FBFB77" style="stroke: #A80036; stroke-width: 1.0;"/><text fill="#000000" font-family="sans-serif" font-size="13" lengthAdjust="spacingAndGlyphs" textLength="235" x="23.5" y="171.0669">"Información estática del un planeta"</text><!--class PlanetarySystem--><rect fill="#FEFECE" filter="url(#f1w6ajy2jaw2f4)" height="52.8047" id="PlanetarySystem" style="stroke: #A80036; stroke-width: 1.5;" width="149" x="310" y="8"/><ellipse cx="330.85" cy="24" fill="#ADD1B2" rx="11" ry="11" style="stroke: #A80036; stroke-width: 1.0;"/><path d="M333.85,29 Q333.2406,29.5 332.5844,29.75 Q331.9281,30 331.1938,30 Q328.5844,30 327.2172,28.4609 Q325.85,26.9219 325.85,24 Q325.85,21.0781 327.2172,19.5391 Q328.5844,18 331.1938,18 Q331.9281,18 332.6,18.25 Q333.2719,18.5 333.85,19 L333.85,22 Q333.2406,20.9688 332.6625,20.4844 Q332.0844,20 331.475,20 Q330.1781,20 329.5141,21.0078 Q328.85,22.0156 328.85,24 Q328.85,25.9844 329.5141,26.9922 Q330.1781,28 331.475,28 Q332.0844,28 332.6625,27.5156 Q333.2406,27.0313 333.85,26 L333.85,29 Z "/><text fill="#000000" font-family="sans-serif" font-size="12" lengthAdjust="spacingAndGlyphs" textLength="104" x="346.15" y="28.1543">PlanetarySystem</text><line style="stroke: #A80036; stroke-width: 1.5;" x1="311" x2="458" y1="40" y2="40"/><ellipse cx="321" cy="51.9023" fill="none" rx="3" ry="3" style="stroke: #038048; stroke-width: 1.0;"/><text fill="#000000" font-family="sans-serif" font-size="11" lengthAdjust="spacingAndGlyphs" textLength="123" x="330" y="54.2104">planets: List&lt;Planet&gt;</text><path d="M6,22 L6,47.1328 A0,0 0 0 0 6,47.1328 L275,47.1328 A0,0 0 0 0 275,47.1328 L275,40 L309.8975,34.5 L275,32 L275,32 L265,22 L6,22 A0,0 0 0 0 6,22 " fill="#FBFB77" filter="url(#f1w6ajy2jaw2f4)" style="stroke: #A80036; stroke-width: 1.0;"/><path d="M265,22 L265,32 L275,32 L265,22 " fill="#FBFB77" style="stroke: #A80036; stroke-width: 1.0;"/><text fill="#000000" font-family="sans-serif" font-size="13" lengthAdjust="spacingAndGlyphs" textLength="248" x="12" y="39.0669">"Información de un sistema planetario"</text><!--class PlanetInstant--><rect fill="#FEFECE" filter="url(#f1w6ajy2jaw2f4)" height="78.4141" id="PlanetInstant" style="stroke: #A80036; stroke-width: 1.5;" width="128" x="543.5" y="127.5"/><ellipse cx="563.9" cy="143.5" fill="#ADD1B2" rx="11" ry="11" style="stroke: #A80036; stroke-width: 1.0;"/><path d="M566.9,148.5 Q566.2906,149 565.6344,149.25 Q564.9781,149.5 564.2438,149.5 Q561.6344,149.5 560.2672,147.9609 Q558.9,146.4219 558.9,143.5 Q558.9,140.5781 560.2672,139.0391 Q561.6344,137.5 564.2438,137.5 Q564.9781,137.5 565.65,137.75 Q566.3219,138 566.9,138.5 L566.9,141.5 Q566.2906,140.4688 565.7125,139.9844 Q565.1344,139.5 564.525,139.5 Q563.2281,139.5 562.5641,140.5078 Q561.9,141.5156 561.9,143.5 Q561.9,145.4844 562.5641,146.4922 Q563.2281,147.5 564.525,147.5 Q565.1344,147.5 565.7125,147.0156 Q566.2906,146.5313 566.9,145.5 L566.9,148.5 Z "/><text fill="#000000" font-family="sans-serif" font-size="12" lengthAdjust="spacingAndGlyphs" textLength="84" x="579.1" y="147.6543">PlanetInstant</text><line style="stroke: #A80036; stroke-width: 1.5;" x1="544.5" x2="670.5" y1="159.5" y2="159.5"/><ellipse cx="554.5" cy="171.4023" fill="none" rx="3" ry="3" style="stroke: #038048; stroke-width: 1.0;"/><text fill="#000000" font-family="sans-serif" font-size="11" lengthAdjust="spacingAndGlyphs" textLength="82" x="563.5" y="173.7104">planet: Planet;</text><ellipse cx="554.5" cy="184.207" fill="none" rx="3" ry="3" style="stroke: #038048; stroke-width: 1.0;"/><text fill="#000000" font-family="sans-serif" font-size="11" lengthAdjust="spacingAndGlyphs" textLength="51" x="563.5" y="186.5151">degrees;</text><ellipse cx="554.5" cy="197.0117" fill="none" rx="3" ry="3" style="stroke: #038048; stroke-width: 1.0;"/><text fill="#000000" font-family="sans-serif" font-size="11" lengthAdjust="spacingAndGlyphs" textLength="102" x="563.5" y="199.3198">position: Position;</text><path d="M706.5,154 L706.5,162.5 L671.5654,166.5 L706.5,170.5 L706.5,179.1328 A0,0 0 0 0 706.5,179.1328 L1086.5,179.1328 A0,0 0 0 0 1086.5,179.1328 L1086.5,164 L1076.5,154 L706.5,154 A0,0 0 0 0 706.5,154 " fill="#FBFB77" filter="url(#f1w6ajy2jaw2f4)" style="stroke: #A80036; stroke-width: 1.0;"/><path d="M1076.5,154 L1076.5,164 L1086.5,164 L1076.5,154 " fill="#FBFB77" style="stroke: #A80036; stroke-width: 1.0;"/><text fill="#000000" font-family="sans-serif" font-size="13" lengthAdjust="spacingAndGlyphs" textLength="359" x="712.5" y="171.0669">"Información de un planeta en un instante determinado"</text><!--class PlanetarySystemInstant--><rect fill="#FEFECE" filter="url(#f1w6ajy2jaw2f4)" height="52.8047" id="PlanetarySystemInstant" style="stroke: #A80036; stroke-width: 1.5;" width="227" x="494" y="8"/><ellipse cx="530.15" cy="24" fill="#ADD1B2" rx="11" ry="11" style="stroke: #A80036; stroke-width: 1.0;"/><path d="M533.15,29 Q532.5406,29.5 531.8844,29.75 Q531.2281,30 530.4938,30 Q527.8844,30 526.5172,28.4609 Q525.15,26.9219 525.15,24 Q525.15,21.0781 526.5172,19.5391 Q527.8844,18 530.4938,18 Q531.2281,18 531.9,18.25 Q532.5719,18.5 533.15,19 L533.15,22 Q532.5406,20.9688 531.9625,20.4844 Q531.3844,20 530.775,20 Q529.4781,20 528.8141,21.0078 Q528.15,22.0156 528.15,24 Q528.15,25.9844 528.8141,26.9922 Q529.4781,28 530.775,28 Q531.3844,28 531.9625,27.5156 Q532.5406,27.0313 533.15,26 L533.15,29 Z "/><text fill="#000000" font-family="sans-serif" font-size="12" lengthAdjust="spacingAndGlyphs" textLength="148" x="548.85" y="28.1543">PlanetarySystemInstant</text><line style="stroke: #A80036; stroke-width: 1.5;" x1="495" x2="720" y1="40" y2="40"/><ellipse cx="505" cy="51.9023" fill="none" rx="3" ry="3" style="stroke: #038048; stroke-width: 1.0;"/><text fill="#000000" font-family="sans-serif" font-size="11" lengthAdjust="spacingAndGlyphs" textLength="201" x="514" y="54.2104">planetInstants: List&lt;PlanetInstant&gt;</text><path d="M756,22 L756,30.5 L721.0879,34.5 L756,38.5 L756,47.1328 A0,0 0 0 0 756,47.1328 L1207,47.1328 A0,0 0 0 0 1207,47.1328 L1207,32 L1197,22 L756,22 A0,0 0 0 0 756,22 " fill="#FBFB77" filter="url(#f1w6ajy2jaw2f4)" style="stroke: #A80036; stroke-width: 1.0;"/><path d="M1197,22 L1197,32 L1207,32 L1197,22 " fill="#FBFB77" style="stroke: #A80036; stroke-width: 1.0;"/><text fill="#000000" font-family="sans-serif" font-size="13" lengthAdjust="spacingAndGlyphs" textLength="430" x="762" y="39.0669">"Información de un sistema planetario en un instante determinado"</text><!--class Position--><rect fill="#FEFECE" filter="url(#f1w6ajy2jaw2f4)" height="65.6094" id="Position" style="stroke: #A80036; stroke-width: 1.5;" width="82" x="566.5" y="272"/><ellipse cx="581.5" cy="288" fill="#ADD1B2" rx="11" ry="11" style="stroke: #A80036; stroke-width: 1.0;"/><path d="M584.5,293 Q583.8906,293.5 583.2344,293.75 Q582.5781,294 581.8438,294 Q579.2344,294 577.8672,292.4609 Q576.5,290.9219 576.5,288 Q576.5,285.0781 577.8672,283.5391 Q579.2344,282 581.8438,282 Q582.5781,282 583.25,282.25 Q583.9219,282.5 584.5,283 L584.5,286 Q583.8906,284.9688 583.3125,284.4844 Q582.7344,284 582.125,284 Q580.8281,284 580.1641,285.0078 Q579.5,286.0156 579.5,288 Q579.5,289.9844 580.1641,290.9922 Q580.8281,292 582.125,292 Q582.7344,292 583.3125,291.5156 Q583.8906,291.0313 584.5,290 L584.5,293 Z "/><text fill="#000000" font-family="sans-serif" font-size="12" lengthAdjust="spacingAndGlyphs" textLength="50" x="595.5" y="292.1543">Position</text><line style="stroke: #A80036; stroke-width: 1.5;" x1="567.5" x2="647.5" y1="304" y2="304"/><ellipse cx="577.5" cy="315.9023" fill="none" rx="3" ry="3" style="stroke: #038048; stroke-width: 1.0;"/><text fill="#000000" font-family="sans-serif" font-size="11" lengthAdjust="spacingAndGlyphs" textLength="6" x="586.5" y="318.2104">x</text><ellipse cx="577.5" cy="328.707" fill="none" rx="3" ry="3" style="stroke: #038048; stroke-width: 1.0;"/><text fill="#000000" font-family="sans-serif" font-size="11" lengthAdjust="spacingAndGlyphs" textLength="6" x="586.5" y="331.0151">y</text><path d="M683.5,292.5 L683.5,301 L648.6172,305 L683.5,309 L683.5,317.6328 A0,0 0 0 0 683.5,317.6328 L1085.5,317.6328 A0,0 0 0 0 1085.5,317.6328 L1085.5,302.5 L1075.5,292.5 L683.5,292.5 A0,0 0 0 0 683.5,292.5 " fill="#FBFB77" filter="url(#f1w6ajy2jaw2f4)" style="stroke: #A80036; stroke-width: 1.0;"/><path d="M1075.5,292.5 L1075.5,302.5 L1085.5,302.5 L1075.5,292.5 " fill="#FBFB77" style="stroke: #A80036; stroke-width: 1.0;"/><text fill="#000000" font-family="sans-serif" font-size="13" lengthAdjust="spacingAndGlyphs" textLength="381" x="689.5" y="309.5669">"Coordenadas del plano paralelo a la orbita de los planetas"</text><!--link PlanetarySystem to Planet--><path d="M384.5,74.493 C384.5,89.1155 384.5,105.7655 384.5,120.8449 " fill="none" id="PlanetarySystem-Planet" style="stroke: #A80036; stroke-width: 1.0;"/><polygon fill="#A80036" points="384.5,61.2122,380.5,67.2122,384.5,73.2122,388.5,67.2122,384.5,61.2122" style="stroke: #A80036; stroke-width: 1.0;"/><!--link PlanetarySystemInstant to PlanetInstant--><path d="M607.5,74.5309 C607.5,91.2698 607.5,110.6603 607.5,127.3088 " fill="none" id="PlanetarySystemInstant-PlanetInstant" style="stroke: #A80036; stroke-width: 1.0;"/><polygon fill="#A80036" points="607.5,61.2122,603.5,67.2122,607.5,73.2122,611.5,67.2122,607.5,61.2122" style="stroke: #A80036; stroke-width: 1.0;"/><!--link PlanetInstant to Position--><path d="M607.5,205.8181 C607.5,226.6113 607.5,251.8628 607.5,271.6826 " fill="none" id="PlanetInstant-Position" style="stroke: #A80036; stroke-width: 1.0;"/><!--
@startuml
class Planet {
  + name
  + angularVelocity
  + distanceToStar
  + degreesAtInstantZero
}

note left of Planet : "Información estática del un planeta"

class PlanetarySystem {
  + planets: List<Planet>
}

note left of PlanetarySystem : "Información de un sistema planetario"

PlanetarySystem *- - Planet

class PlanetInstant {
  + planet: Planet;
  + degrees;
  + position: Position;
}

note right of PlanetInstant : "Información de un planeta en un instante determinado"

class PlanetarySystemInstant {
  + planetInstants: List<PlanetInstant>
}

note right of PlanetarySystemInstant : "Información de un sistema planetario en un instante determinado"

class Position {
  + x
  + y
}

note right of Position : "Coordenadas del plano paralelo a la orbita de los planetas"

PlanetarySystemInstant *- - PlanetInstant
PlanetInstant - - Position

hide methods
@enduml

PlantUML version 1.2018.11(Sat Sep 22 13:43:53 ART 2018)
(GPL source distribution)
Java Runtime: OpenJDK Runtime Environment
JVM: OpenJDK 64-Bit Server VM
Java Version: 1.8.0_152-release-1136-b39
Operating System: Linux
OS Version: 4.15.0-43-generic
Default Encoding: UTF-8
Language: en
Country: US
--></g></svg>