<?xml version="1.0" encoding="UTF-8" standalone="no"?><svg xmlns="http://www.w3.org/2000/svg" xmlns:xlink="http://www.w3.org/1999/xlink" contentScriptType="application/ecmascript" contentStyleType="text/css" height="538px" preserveAspectRatio="none" style="width:1001px;height:538px;" version="1.1" viewBox="0 0 1001 538" width="1001px" zoomAndPan="magnify"><defs><filter height="300%" id="f1xi010rdl8ipf" width="300%" x="-1" y="-1"><feGaussianBlur result="blurOut" stdDeviation="2.0"/><feColorMatrix in="blurOut" result="blurOut2" type="matrix" values="0 0 0 0 0 0 0 0 0 0 0 0 0 0 0 0 0 0 .4 0"/><feOffset dx="4.0" dy="4.0" in="blurOut2" result="blurOut3"/><feBlend in="SourceGraphic" in2="blurOut3" mode="normal"/></filter></defs><g><!--class Forecast--><rect fill="#FEFECE" filter="url(#f1xi010rdl8ipf)" height="91.2188" id="Forecast" style="stroke: #A80036; stroke-width: 1.5;" width="226" x="238.5" y="8"/><ellipse cx="319.75" cy="24" fill="#ADD1B2" rx="11" ry="11" style="stroke: #A80036; stroke-width: 1.0;"/><path d="M322.75,29 Q322.1406,29.5 321.4844,29.75 Q320.8281,30 320.0938,30 Q317.4844,30 316.1172,28.4609 Q314.75,26.9219 314.75,24 Q314.75,21.0781 316.1172,19.5391 Q317.4844,18 320.0938,18 Q320.8281,18 321.5,18.25 Q322.1719,18.5 322.75,19 L322.75,22 Q322.1406,20.9688 321.5625,20.4844 Q320.9844,20 320.375,20 Q319.0781,20 318.4141,21.0078 Q317.75,22.0156 317.75,24 Q317.75,25.9844 318.4141,26.9922 Q319.0781,28 320.375,28 Q320.9844,28 321.5625,27.5156 Q322.1406,27.0313 322.75,26 L322.75,29 Z "/><text fill="#000000" font-family="sans-serif" font-size="12" lengthAdjust="spacingAndGlyphs" textLength="55" x="340.25" y="28.1543">Forecast</text><line style="stroke: #A80036; stroke-width: 1.5;" x1="239.5" x2="463.5" y1="40" y2="40"/><ellipse cx="249.5" cy="51.9023" fill="none" rx="3" ry="3" style="stroke: #038048; stroke-width: 1.0;"/><text fill="#000000" font-family="sans-serif" font-size="11" lengthAdjust="spacingAndGlyphs" textLength="188" x="258.5" y="54.2104">droughtDays: List&lt;ForecastDay&gt;</text><ellipse cx="249.5" cy="64.707" fill="none" rx="3" ry="3" style="stroke: #038048; stroke-width: 1.0;"/><text fill="#000000" font-family="sans-serif" font-size="11" lengthAdjust="spacingAndGlyphs" textLength="171" x="258.5" y="67.0151">rainPeriods: List&lt;RainPeriod&gt;</text><ellipse cx="249.5" cy="77.5117" fill="none" rx="3" ry="3" style="stroke: #038048; stroke-width: 1.0;"/><text fill="#000000" font-family="sans-serif" font-size="11" lengthAdjust="spacingAndGlyphs" textLength="200" x="258.5" y="79.8198">optimalPTDays: List&lt;ForecastDay&gt;</text><ellipse cx="249.5" cy="90.3164" fill="none" rx="3" ry="3" style="stroke: #038048; stroke-width: 1.0;"/><text fill="#000000" font-family="sans-serif" font-size="11" lengthAdjust="spacingAndGlyphs" textLength="53" x="258.5" y="92.6245">totalDays</text><path d="M500,41 L500,49.5 L464.5449,53.5 L500,57.5 L500,66.1328 A0,0 0 0 0 500,66.1328 L911,66.1328 A0,0 0 0 0 911,66.1328 L911,51 L901,41 L500,41 A0,0 0 0 0 500,41 " fill="#FBFB77" filter="url(#f1xi010rdl8ipf)" style="stroke: #A80036; stroke-width: 1.0;"/><path d="M901,41 L901,51 L911,51 L901,41 " fill="#FBFB77" style="stroke: #A80036; stroke-width: 1.0;"/><text fill="#000000" font-family="sans-serif" font-size="13" lengthAdjust="spacingAndGlyphs" textLength="390" x="506" y="58.0669">"Representa un pronostico del clima en determinado tiempo"</text><!--class ForecastDay--><rect fill="#FEFECE" filter="url(#f1xi010rdl8ipf)" height="78.4141" id="ForecastDay" style="stroke: #A80036; stroke-width: 1.5;" width="112" x="26.5" y="165.5"/><ellipse cx="42.4" cy="181.5" fill="#ADD1B2" rx="11" ry="11" style="stroke: #A80036; stroke-width: 1.0;"/><path d="M45.4,186.5 Q44.7906,187 44.1344,187.25 Q43.4781,187.5 42.7438,187.5 Q40.1344,187.5 38.7672,185.9609 Q37.4,184.4219 37.4,181.5 Q37.4,178.5781 38.7672,177.0391 Q40.1344,175.5 42.7438,175.5 Q43.4781,175.5 44.15,175.75 Q44.8219,176 45.4,176.5 L45.4,179.5 Q44.7906,178.4688 44.2125,177.9844 Q43.6344,177.5 43.025,177.5 Q41.7281,177.5 41.0641,178.5078 Q40.4,179.5156 40.4,181.5 Q40.4,183.4844 41.0641,184.4922 Q41.7281,185.5 43.025,185.5 Q43.6344,185.5 44.2125,185.0156 Q44.7906,184.5313 45.4,183.5 L45.4,186.5 Z "/><text fill="#000000" font-family="sans-serif" font-size="12" lengthAdjust="spacingAndGlyphs" textLength="78" x="56.6" y="185.6543">ForecastDay</text><line style="stroke: #A80036; stroke-width: 1.5;" x1="27.5" x2="137.5" y1="197.5" y2="197.5"/><text fill="#000000" font-family="sans-serif" font-size="11" lengthAdjust="spacingAndGlyphs" textLength="10" x="32.5" y="211.7104">id</text><text fill="#000000" font-family="sans-serif" font-size="11" lengthAdjust="spacingAndGlyphs" textLength="20" x="32.5" y="224.5151">day</text><text fill="#000000" font-family="sans-serif" font-size="11" lengthAdjust="spacingAndGlyphs" textLength="100" x="32.5" y="237.3198">weather: Weather</text><path d="M174,192 L174,200.5 L138.6523,204.5 L174,208.5 L174,217.1328 A0,0 0 0 0 174,217.1328 L491,217.1328 A0,0 0 0 0 491,217.1328 L491,202 L481,192 L174,192 A0,0 0 0 0 174,192 " fill="#FBFB77" filter="url(#f1xi010rdl8ipf)" style="stroke: #A80036; stroke-width: 1.0;"/><path d="M481,192 L481,202 L491,202 L481,192 " fill="#FBFB77" style="stroke: #A80036; stroke-width: 1.0;"/><text fill="#000000" font-family="sans-serif" font-size="13" lengthAdjust="spacingAndGlyphs" textLength="296" x="180" y="209.0669">"Representa el pronostico de un dia particular"</text><!--class RainPeriod--><rect fill="#FEFECE" filter="url(#f1xi010rdl8ipf)" height="91.2188" id="RainPeriod" style="stroke: #A80036; stroke-width: 1.5;" width="189" x="526" y="159"/><ellipse cx="582.75" cy="175" fill="#ADD1B2" rx="11" ry="11" style="stroke: #A80036; stroke-width: 1.0;"/><path d="M585.75,180 Q585.1406,180.5 584.4844,180.75 Q583.8281,181 583.0938,181 Q580.4844,181 579.1172,179.4609 Q577.75,177.9219 577.75,175 Q577.75,172.0781 579.1172,170.5391 Q580.4844,169 583.0938,169 Q583.8281,169 584.5,169.25 Q585.1719,169.5 585.75,170 L585.75,173 Q585.1406,171.9688 584.5625,171.4844 Q583.9844,171 583.375,171 Q582.0781,171 581.4141,172.0078 Q580.75,173.0156 580.75,175 Q580.75,176.9844 581.4141,177.9922 Q582.0781,179 583.375,179 Q583.9844,179 584.5625,178.5156 Q585.1406,178.0313 585.75,177 L585.75,180 Z "/><text fill="#000000" font-family="sans-serif" font-size="12" lengthAdjust="spacingAndGlyphs" textLength="67" x="603.25" y="179.1543">RainPeriod</text><line style="stroke: #A80036; stroke-width: 1.5;" x1="527" x2="714" y1="191" y2="191"/><text fill="#000000" font-family="sans-serif" font-size="11" lengthAdjust="spacingAndGlyphs" textLength="71" x="532" y="205.2104">rainDayStart</text><text fill="#000000" font-family="sans-serif" font-size="11" lengthAdjust="spacingAndGlyphs" textLength="64" x="532" y="218.0151">rainDayEnd</text><text fill="#000000" font-family="sans-serif" font-size="11" lengthAdjust="spacingAndGlyphs" textLength="113" x="532" y="230.8198">maxRainfallIntensity</text><text fill="#000000" font-family="sans-serif" font-size="11" lengthAdjust="spacingAndGlyphs" textLength="177" x="532" y="243.6245">rainDayWithMaxRainfallIntensity</text><path d="M750,192 L750,200.5 L715.334,204.5 L750,208.5 L750,217.1328 A0,0 0 0 0 750,217.1328 L989,217.1328 A0,0 0 0 0 989,217.1328 L989,202 L979,192 L750,192 A0,0 0 0 0 750,192 " fill="#FBFB77" filter="url(#f1xi010rdl8ipf)" style="stroke: #A80036; stroke-width: 1.0;"/><path d="M979,192 L979,202 L989,202 L979,192 " fill="#FBFB77" style="stroke: #A80036; stroke-width: 1.0;"/><text fill="#000000" font-family="sans-serif" font-size="13" lengthAdjust="spacingAndGlyphs" textLength="218" x="756" y="209.0669">"Representa un periodo de lluvias"</text><!--class Weather--><rect fill="#FEFECE" filter="url(#f1xi010rdl8ipf)" height="65.6094" id="Weather" style="stroke: #A80036; stroke-width: 1.5;" width="153" x="6" y="310"/><ellipse cx="51.75" cy="326" fill="#ADD1B2" rx="11" ry="11" style="stroke: #A80036; stroke-width: 1.0;"/><path d="M54.75,331 Q54.1406,331.5 53.4844,331.75 Q52.8281,332 52.0938,332 Q49.4844,332 48.1172,330.4609 Q46.75,328.9219 46.75,326 Q46.75,323.0781 48.1172,321.5391 Q49.4844,320 52.0938,320 Q52.8281,320 53.5,320.25 Q54.1719,320.5 54.75,321 L54.75,324 Q54.1406,322.9688 53.5625,322.4844 Q52.9844,322 52.375,322 Q51.0781,322 50.4141,323.0078 Q49.75,324.0156 49.75,326 Q49.75,327.9844 50.4141,328.9922 Q51.0781,330 52.375,330 Q52.9844,330 53.5625,329.5156 Q54.1406,329.0313 54.75,328 L54.75,331 Z "/><text fill="#000000" font-family="sans-serif" font-size="12" lengthAdjust="spacingAndGlyphs" textLength="53" x="72.25" y="330.1543">Weather</text><line style="stroke: #A80036; stroke-width: 1.5;" x1="7" x2="158" y1="342" y2="342"/><ellipse cx="17" cy="353.9023" fill="none" rx="3" ry="3" style="stroke: #038048; stroke-width: 1.0;"/><text fill="#000000" font-family="sans-serif" font-size="11" lengthAdjust="spacingAndGlyphs" textLength="127" x="26" y="356.2104">status: WeatherStatus</text><ellipse cx="17" cy="366.707" fill="none" rx="3" ry="3" style="stroke: #038048; stroke-width: 1.0;"/><text fill="#000000" font-family="sans-serif" font-size="11" lengthAdjust="spacingAndGlyphs" textLength="87" x="26" y="369.0151">rainfallIntensity</text><path d="M194,330.5 L194,339 L159.375,343 L194,347 L194,355.6328 A0,0 0 0 0 194,355.6328 L451,355.6328 A0,0 0 0 0 451,355.6328 L451,340.5 L441,330.5 L194,330.5 A0,0 0 0 0 194,330.5 " fill="#FBFB77" filter="url(#f1xi010rdl8ipf)" style="stroke: #A80036; stroke-width: 1.0;"/><path d="M441,330.5 L441,340.5 L451,340.5 L441,330.5 " fill="#FBFB77" style="stroke: #A80036; stroke-width: 1.0;"/><text fill="#000000" font-family="sans-serif" font-size="13" lengthAdjust="spacingAndGlyphs" textLength="236" x="200" y="347.5669">"Representa una condición climatica"</text><!--class WeatherStatus--><rect fill="#FEFECE" filter="url(#f1xi010rdl8ipf)" height="91.2188" id="WeatherStatus" style="stroke: #A80036; stroke-width: 1.5;" width="126" x="19.5" y="436"/><ellipse cx="34.5" cy="452" fill="#EB937F" rx="11" ry="11" style="stroke: #A80036; stroke-width: 1.0;"/><path d="M38.5,458 L30.5,458 L30.5,446 L38.5,446 L38.5,448 L33.5,448 L33.5,451 L37.5,451 L37.5,453 L33.5,453 L33.5,456 L38.5,456 L38.5,458 Z "/><text fill="#000000" font-family="sans-serif" font-size="12" lengthAdjust="spacingAndGlyphs" textLength="94" x="48.5" y="456.1543">WeatherStatus</text><line style="stroke: #A80036; stroke-width: 1.5;" x1="20.5" x2="144.5" y1="468" y2="468"/><text fill="#000000" font-family="sans-serif" font-size="11" lengthAdjust="spacingAndGlyphs" textLength="56" x="25.5" y="482.2104">DROUGHT</text><text fill="#000000" font-family="sans-serif" font-size="11" lengthAdjust="spacingAndGlyphs" textLength="46" x="25.5" y="495.0151">NORMAL</text><text fill="#000000" font-family="sans-serif" font-size="11" lengthAdjust="spacingAndGlyphs" textLength="32" x="25.5" y="507.8198">RAINY</text><text fill="#000000" font-family="sans-serif" font-size="11" lengthAdjust="spacingAndGlyphs" textLength="74" x="25.5" y="520.6245">OPTIMAL_P_T</text><!--link Forecast to ForecastDay--><path d="M252.8162,105.5209 C221.7902,122.2414 187.5361,141.0811 156.5,159 C150.7532,162.3179 144.7958,165.8395 138.87,169.3965 " fill="none" id="Forecast-ForecastDay" style="stroke: #A80036; stroke-width: 1.0;"/><polygon fill="#A80036" points="264.5358,99.2227,257.3571,98.5396,253.9656,104.9034,261.1443,105.5865,264.5358,99.2227" style="stroke: #A80036; stroke-width: 1.0;"/><!--link Forecast to RainPeriod--><path d="M444.2251,105.5501 C475.0824,122.8715 509.1966,142.0211 539.1282,158.8229 " fill="none" id="Forecast-RainPeriod" style="stroke: #A80036; stroke-width: 1.0;"/><polygon fill="#A80036" points="432.5737,99.0098,435.8478,105.4348,443.0378,104.8837,439.7637,98.4587,432.5737,99.0098" style="stroke: #A80036; stroke-width: 1.0;"/><!--link ForecastDay to Weather--><path d="M82.5,243.8181 C82.5,264.6113 82.5,289.8628 82.5,309.6826 " fill="none" id="ForecastDay-Weather" style="stroke: #A80036; stroke-width: 1.0;"/><!--link Weather to WeatherStatus--><path d="M82.5,376.1742 C82.5,394.0203 82.5,416.3012 82.5,435.7683 " fill="none" id="Weather-WeatherStatus" style="stroke: #A80036; stroke-width: 1.0;"/><!--
@startuml

class Forecast {
  + droughtDays: List<ForecastDay>
  + rainPeriods: List<RainPeriod>
  + optimalPTDays: List<ForecastDay>
  + totalDays
}

note right of Forecast : "Representa un pronostico del clima en determinado tiempo"

class ForecastDay {
  id
  day
  weather: Weather
}

note right of ForecastDay : "Representa el pronostico de un dia particular"

class RainPeriod {
  rainDayStart
  rainDayEnd
  maxRainfallIntensity
  rainDayWithMaxRainfallIntensity
}

note right of RainPeriod : "Representa un periodo de lluvias"

class Weather {
  + status: WeatherStatus 
  + rainfallIntensity
}

note right of Weather : "Representa una condición climatica"

enum WeatherStatus {
    DROUGHT
    NORMAL
    RAINY
    OPTIMAL_P_T
}

Forecast *- - ForecastDay
Forecast *- - RainPeriod
ForecastDay - - Weather
Weather - - WeatherStatus

hide methods
@enduml

PlantUML version 1.2018.11(Sat Sep 22 13:43:53 ART 2018)
(GPL source distribution)
Java Runtime: OpenJDK Runtime Environment
JVM: OpenJDK 64-Bit Server VM
Java Version: 1.8.0_152-release-1136-b39
Operating System: Linux
OS Version: 4.15.0-43-generic
Default Encoding: UTF-8
Language: en
Country: US
--></g></svg>